<svg xmlns="http://www.w3.org/2000/svg"  viewBox="0 0 48 48" width="40px" height="40px"><path d="M 27.689453 2.0371094 C 24.410243 2.0371094 21.627143 3.0524604 19.751953 5.0898438 C 17.876763 7.1272271 16.998047 10.032839 16.998047 13.5 L 16.998047 17 L 13.517578 17 C 11.589931 17 9.9985023 18.604801 10.017578 20.533203 L 10.046875 23.537109 A 1.50015 1.50015 0 0 0 10.046875 23.539062 C 10.069385 25.440659 11.647206 27.005642 13.550781 27.003906 L 17 27.001953 L 17 43.5 C 17 45.414955 18.585045 47 20.5 47 L 24.5 47 C 26.414955 47 28 45.414955 28 43.5 L 28 27 L 31.095703 27 C 32.859472 27 34.367374 25.656297 34.572266 23.904297 L 34.921875 20.904297 C 35.160419 18.850746 33.513658 17 31.445312 17 L 28.019531 17 L 28.0625 13.712891 A 1.50015 1.50015 0 0 0 28.0625 13.693359 C 28.0625 13.00752 28.583692 12.486328 29.269531 12.486328 L 32.177734 12.486328 C 33.735895 12.486328 35.03125 11.190973 35.03125 9.6328125 L 35.03125 5.0625 C 35.03125 3.596878 33.891093 2.3503008 32.433594 2.21875 A 1.50015 1.50015 0 0 0 32.429688 2.21875 C 32.145313 2.1938679 30.177903 2.0371094 27.689453 2.0371094 z M 27.689453 5.0371094 C 29.967263 5.0371094 32.01319 5.2007464 32.03125 5.2011719 L 32.03125 9.4863281 L 29.269531 9.4863281 C 26.963371 9.4863281 25.0625 11.387199 25.0625 13.693359 L 25 18.480469 A 1.50015 1.50015 0 0 0 26.5 20 L 31.445312 20 C 31.770968 20 31.978863 20.236144 31.941406 20.558594 L 31.59375 23.556641 C 31.562642 23.82264 31.361935 24 31.095703 24 L 26.5 24 A 1.50015 1.50015 0 0 0 25 25.5 L 25 43.5 C 25 43.795045 24.795045 44 24.5 44 L 20.5 44 C 20.204955 44 20 43.795045 20 43.5 L 20 25.5 A 1.50015 1.50015 0 0 0 18.5 24 L 13.548828 24.003906 A 1.50015 1.50015 0 0 0 13.546875 24.003906 C 13.257582 24.00417 13.051932 23.798417 13.046875 23.505859 L 13.017578 20.503906 C 13.014704 20.208314 13.221226 20 13.517578 20 L 18.498047 20 A 1.50015 1.50015 0 0 0 19.998047 18.5 L 19.998047 13.5 C 19.998047 10.534161 20.731877 8.4584135 21.960938 7.1230469 C 23.189996 5.7876802 25.001663 5.0371094 27.689453 5.0371094 z"/></svg>